<mxfile host="app.diagrams.net" modified="2023-07-25T14:47:36.972Z" agent="Mozilla/5.0 (Windows NT 10.0; Win64; x64) AppleWebKit/537.36 (KHTML, like Gecko) Chrome/114.0.0.0 Safari/537.36" etag="2zhl_xOq-bry5cMBbClw" version="21.6.5" type="device">
  <diagram name="Page-1" id="ZfNSX0K0KNm2HBKMSlcP">
    <mxGraphModel dx="819" dy="437" grid="1" gridSize="10" guides="1" tooltips="1" connect="1" arrows="1" fold="1" page="1" pageScale="1" pageWidth="827" pageHeight="1169" math="0" shadow="0">
      <root>
        <mxCell id="0" />
        <mxCell id="1" parent="0" />
        <mxCell id="5RuvJhmlKwmUlaUrLdRp-2" value="" style="rounded=0;whiteSpace=wrap;html=1;" vertex="1" parent="1">
          <mxGeometry x="81" y="30" width="140" height="180" as="geometry" />
        </mxCell>
        <mxCell id="5RuvJhmlKwmUlaUrLdRp-3" value="enfants" style="text;html=1;strokeColor=none;fillColor=none;align=center;verticalAlign=middle;whiteSpace=wrap;rounded=0;" vertex="1" parent="1">
          <mxGeometry x="81" y="30" width="140" height="30" as="geometry" />
        </mxCell>
        <mxCell id="5RuvJhmlKwmUlaUrLdRp-4" value="" style="endArrow=none;html=1;rounded=0;exitX=0;exitY=1;exitDx=0;exitDy=0;entryX=1;entryY=1;entryDx=0;entryDy=0;" edge="1" parent="1" source="5RuvJhmlKwmUlaUrLdRp-3" target="5RuvJhmlKwmUlaUrLdRp-3">
          <mxGeometry width="50" height="50" relative="1" as="geometry">
            <mxPoint x="331" y="230" as="sourcePoint" />
            <mxPoint x="381" y="180" as="targetPoint" />
          </mxGeometry>
        </mxCell>
        <mxCell id="5RuvJhmlKwmUlaUrLdRp-5" value="" style="rounded=0;whiteSpace=wrap;html=1;" vertex="1" parent="1">
          <mxGeometry x="361" y="31" width="140" height="180" as="geometry" />
        </mxCell>
        <mxCell id="5RuvJhmlKwmUlaUrLdRp-6" value="comportements" style="text;html=1;strokeColor=none;fillColor=none;align=center;verticalAlign=middle;whiteSpace=wrap;rounded=0;" vertex="1" parent="1">
          <mxGeometry x="361" y="31" width="140" height="30" as="geometry" />
        </mxCell>
        <mxCell id="5RuvJhmlKwmUlaUrLdRp-7" value="" style="endArrow=none;html=1;rounded=0;exitX=0;exitY=1;exitDx=0;exitDy=0;entryX=1;entryY=1;entryDx=0;entryDy=0;" edge="1" parent="1" source="5RuvJhmlKwmUlaUrLdRp-6" target="5RuvJhmlKwmUlaUrLdRp-6">
          <mxGeometry width="50" height="50" relative="1" as="geometry">
            <mxPoint x="611" y="231" as="sourcePoint" />
            <mxPoint x="661" y="181" as="targetPoint" />
          </mxGeometry>
        </mxCell>
        <mxCell id="5RuvJhmlKwmUlaUrLdRp-8" value="n°enfants" style="text;html=1;strokeColor=none;fillColor=none;align=left;verticalAlign=middle;whiteSpace=wrap;rounded=0;fontSize=16;" vertex="1" parent="1">
          <mxGeometry x="91" y="60" width="130" height="30" as="geometry" />
        </mxCell>
        <mxCell id="5RuvJhmlKwmUlaUrLdRp-9" value="nom" style="text;html=1;strokeColor=none;fillColor=none;align=left;verticalAlign=middle;whiteSpace=wrap;rounded=0;fontSize=16;" vertex="1" parent="1">
          <mxGeometry x="91" y="80" width="130" height="30" as="geometry" />
        </mxCell>
        <mxCell id="5RuvJhmlKwmUlaUrLdRp-10" value="prenom" style="text;html=1;strokeColor=none;fillColor=none;align=left;verticalAlign=middle;whiteSpace=wrap;rounded=0;fontSize=16;" vertex="1" parent="1">
          <mxGeometry x="91" y="105" width="130" height="30" as="geometry" />
        </mxCell>
        <mxCell id="5RuvJhmlKwmUlaUrLdRp-11" value="age" style="text;html=1;strokeColor=none;fillColor=none;align=left;verticalAlign=middle;whiteSpace=wrap;rounded=0;fontSize=16;" vertex="1" parent="1">
          <mxGeometry x="91" y="130" width="130" height="30" as="geometry" />
        </mxCell>
        <mxCell id="5RuvJhmlKwmUlaUrLdRp-12" value="n°enfants" style="text;html=1;strokeColor=none;fillColor=none;align=left;verticalAlign=middle;whiteSpace=wrap;rounded=0;fontSize=16;" vertex="1" parent="1">
          <mxGeometry x="91" y="150" width="130" height="30" as="geometry" />
        </mxCell>
        <mxCell id="5RuvJhmlKwmUlaUrLdRp-13" value="" style="ellipse;whiteSpace=wrap;html=1;aspect=fixed;" vertex="1" parent="1">
          <mxGeometry x="269" y="47" width="40" height="40" as="geometry" />
        </mxCell>
        <mxCell id="5RuvJhmlKwmUlaUrLdRp-14" value="" style="endArrow=none;html=1;rounded=0;entryX=0;entryY=0.5;entryDx=0;entryDy=0;exitX=1;exitY=0.25;exitDx=0;exitDy=0;" edge="1" parent="1" source="5RuvJhmlKwmUlaUrLdRp-8" target="5RuvJhmlKwmUlaUrLdRp-13">
          <mxGeometry width="50" height="50" relative="1" as="geometry">
            <mxPoint x="369" y="250" as="sourcePoint" />
            <mxPoint x="419" y="200" as="targetPoint" />
          </mxGeometry>
        </mxCell>
        <mxCell id="5RuvJhmlKwmUlaUrLdRp-15" value="" style="endArrow=none;html=1;rounded=0;exitX=1;exitY=0.5;exitDx=0;exitDy=0;entryX=-0.005;entryY=0.204;entryDx=0;entryDy=0;entryPerimeter=0;" edge="1" parent="1" source="5RuvJhmlKwmUlaUrLdRp-13" target="5RuvJhmlKwmUlaUrLdRp-5">
          <mxGeometry width="50" height="50" relative="1" as="geometry">
            <mxPoint x="369" y="250" as="sourcePoint" />
            <mxPoint x="422" y="70" as="targetPoint" />
          </mxGeometry>
        </mxCell>
      </root>
    </mxGraphModel>
  </diagram>
</mxfile>
